{
.appVersion = "1075";
copyright = "Copyright 2016 The Rounded M+ Project Authors.";
customParameters = (
{
name = vendorID;
value = "M+  ";
},
{
name = panose;
value = (
2,
11,
3,
3,
2,
2,
3,
2,
2,
7
);
},
{
name = unicodeRanges;
value = (
0,
1,
2,
3,
4,
5,
6,
7,
9,
11,
24,
29,
30,
31,
32,
33,
35,
36,
37,
38,
39,
40,
42,
43,
44,
45,
46,
47,
48,
49,
50,
54,
57,
59,
61,
62,
65,
68,
89
);
},
{
name = codePageRanges;
value = (
1252,
1250,
1251,
1253,
1254,
1255,
1257,
1258,
932,
950,
869,
866,
865,
863,
862,
861,
860,
857,
855,
852,
775,
737,
850,
437
);
},
{
name = glyphOrder;
value = (
.notdef,
space
);
}
);
date = "2015-05-28 17:12:02 +0000";
familyName = "Yaku Han RP";
fontMaster = (
{
ascender = 860;
capHeight = 700;
customParameters = (
{
name = typoAscender;
value = 860;
},
{
name = typoDescender;
value = -140;
},
{
name = typoLineGap;
value = 90;
},
{
name = winAscent;
value = 1075;
},
{
name = winDescent;
value = 320;
},
{
name = hheaAscender;
value = 1075;
},
{
name = hheaDescender;
value = -320;
},
{
name = underlinePosition;
value = -150;
}
);
descender = -140;
id = "99EDF2D5-CD7B-4E11-8CDD-EE9B5E3139F2";
weight = Light;
weightValue = 250;
widthValue = 5;
xHeight = 500;
}
);
glyphs = (
{
glyphname = ellipsis;
lastChange = "2017-12-21 08:49:37 +0000";
layers = (
{
layerId = "99EDF2D5-CD7B-4E11-8CDD-EE9B5E3139F2";
paths = (
{
closed = 1;
nodes = (
"843 417 OFFCURVE",
"840 420 OFFCURVE",
"833 420 CURVE SMOOTH",
"826 420 OFFCURVE",
"823 417 OFFCURVE",
"823 410 CURVE SMOOTH",
"823 310 LINE SMOOTH",
"823 303 OFFCURVE",
"826 300 OFFCURVE",
"833 300 CURVE SMOOTH",
"840 300 OFFCURVE",
"843 303 OFFCURVE",
"843 310 CURVE SMOOTH",
"843 410 LINE SMOOTH"
);
},
{
closed = 1;
nodes = (
"510 417 OFFCURVE",
"507 420 OFFCURVE",
"500 420 CURVE SMOOTH",
"493 420 OFFCURVE",
"490 417 OFFCURVE",
"490 410 CURVE SMOOTH",
"490 310 LINE SMOOTH",
"490 303 OFFCURVE",
"493 300 OFFCURVE",
"500 300 CURVE SMOOTH",
"507 300 OFFCURVE",
"510 303 OFFCURVE",
"510 310 CURVE SMOOTH",
"510 410 LINE SMOOTH"
);
},
{
closed = 1;
nodes = (
"177 417 OFFCURVE",
"174 420 OFFCURVE",
"167 420 CURVE SMOOTH",
"160 420 OFFCURVE",
"157 417 OFFCURVE",
"157 410 CURVE SMOOTH",
"157 310 LINE SMOOTH",
"157 303 OFFCURVE",
"160 300 OFFCURVE",
"167 300 CURVE SMOOTH",
"174 300 OFFCURVE",
"177 303 OFFCURVE",
"177 310 CURVE SMOOTH",
"177 410 LINE SMOOTH"
);
}
);
vertWidth = 1000;
width = 1000;
}
);
note = ellipsis;
unicode = 2026;
},
{
glyphname = colon.full;
lastChange = "2017-12-21 08:51:00 +0000";
layers = (
{
layerId = "99EDF2D5-CD7B-4E11-8CDD-EE9B5E3139F2";
paths = (
{
closed = 1;
nodes = (
"170 197 OFFCURVE",
"167 200 OFFCURVE",
"160 200 CURVE SMOOTH",
"153 200 OFFCURVE",
"150 197 OFFCURVE",
"150 190 CURVE SMOOTH",
"150 100 LINE SMOOTH",
"150 93 OFFCURVE",
"153 90 OFFCURVE",
"160 90 CURVE SMOOTH",
"167 90 OFFCURVE",
"170 93 OFFCURVE",
"170 100 CURVE SMOOTH",
"170 190 LINE SMOOTH"
);
},
{
closed = 1;
nodes = (
"170 627 OFFCURVE",
"167 630 OFFCURVE",
"160 630 CURVE SMOOTH",
"153 630 OFFCURVE",
"150 627 OFFCURVE",
"150 620 CURVE SMOOTH",
"150 530 LINE SMOOTH",
"150 523 OFFCURVE",
"153 520 OFFCURVE",
"160 520 CURVE SMOOTH",
"167 520 OFFCURVE",
"170 523 OFFCURVE",
"170 530 CURVE SMOOTH",
"170 620 LINE SMOOTH"
);
}
);
vertWidth = 1000;
width = 320;
}
);
note = uniFF1A;
unicode = FF1A;
},
{
glyphname = exclam.full;
lastChange = "2017-12-21 08:51:00 +0000";
layers = (
{
layerId = "99EDF2D5-CD7B-4E11-8CDD-EE9B5E3139F2";
paths = (
{
closed = 1;
nodes = (
"170 727 OFFCURVE",
"167 730 OFFCURVE",
"160 730 CURVE SMOOTH",
"153 730 OFFCURVE",
"150 727 OFFCURVE",
"150 720 CURVE SMOOTH",
"150 200 LINE SMOOTH",
"150 193 OFFCURVE",
"153 190 OFFCURVE",
"160 190 CURVE SMOOTH",
"167 190 OFFCURVE",
"170 193 OFFCURVE",
"170 200 CURVE SMOOTH",
"170 720 LINE SMOOTH"
);
},
{
closed = 1;
nodes = (
"170 107 OFFCURVE",
"167 110 OFFCURVE",
"160 110 CURVE SMOOTH",
"153 110 OFFCURVE",
"150 107 OFFCURVE",
"150 100 CURVE SMOOTH",
"150 10 LINE SMOOTH",
"150 3 OFFCURVE",
"153 0 OFFCURVE",
"160 0 CURVE SMOOTH",
"167 0 OFFCURVE",
"170 3 OFFCURVE",
"170 10 CURVE SMOOTH",
"170 100 LINE SMOOTH"
);
}
);
vertWidth = 1000;
width = 320;
}
);
note = uniFF01;
unicode = FF01;
},
{
glyphname = question.full;
lastChange = "2017-12-21 08:51:00 +0000";
layers = (
{
layerId = "99EDF2D5-CD7B-4E11-8CDD-EE9B5E3139F2";
paths = (
{
closed = 1;
nodes = (
"236 709 OFFCURVE",
"312 720 OFFCURVE",
"390 720 CURVE SMOOTH",
"543 720 OFFCURVE",
"630 673 OFFCURVE",
"630 590 CURVE SMOOTH",
"630 546 OFFCURVE",
"617 511 OFFCURVE",
"586 482 CURVE SMOOTH",
"554 453 OFFCURVE",
"537 441 OFFCURVE",
"490 414 CURVE SMOOTH",
"439 385 OFFCURVE",
"420 372 OFFCURVE",
"383 337 CURVE SMOOTH",
"346 301 OFFCURVE",
"328 257 OFFCURVE",
"325 200 CURVE",
"325 193 OFFCURVE",
"328 190 OFFCURVE",
"335 190 CURVE SMOOTH",
"342 190 OFFCURVE",
"345 194 OFFCURVE",
"345 201 CURVE",
"348 253 OFFCURVE",
"362 291 OFFCURVE",
"398 324 CURVE SMOOTH",
"433 356 OFFCURVE",
"448 365 OFFCURVE",
"500 397 CURVE SMOOTH",
"549 425 OFFCURVE",
"568 437 OFFCURVE",
"602 469 CURVE SMOOTH",
"636 501 OFFCURVE",
"650 541 OFFCURVE",
"650 590 CURVE SMOOTH",
"650 685 OFFCURVE",
"555 740 OFFCURVE",
"390 740 CURVE SMOOTH",
"309 740 OFFCURVE",
"232 729 OFFCURVE",
"157 707 CURVE",
"144 702 OFFCURVE",
"151 684 OFFCURVE",
"162 688 CURVE"
);
},
{
closed = 1;
nodes = (
"325 3 OFFCURVE",
"328 0 OFFCURVE",
"335 0 CURVE SMOOTH",
"342 0 OFFCURVE",
"345 3 OFFCURVE",
"345 10 CURVE SMOOTH",
"345 100 LINE SMOOTH",
"345 107 OFFCURVE",
"342 110 OFFCURVE",
"335 110 CURVE SMOOTH",
"328 110 OFFCURVE",
"325 107 OFFCURVE",
"325 100 CURVE SMOOTH",
"325 10 LINE SMOOTH"
);
}
);
vertWidth = 1000;
width = 800;
}
);
note = uniFF1F;
unicode = FF1F;
},
{
glyphname = semicolon.full;
lastChange = "2017-12-21 08:51:00 +0000";
layers = (
{
layerId = "99EDF2D5-CD7B-4E11-8CDD-EE9B5E3139F2";
paths = (
{
closed = 1;
nodes = (
"164 -20 OFFCURVE",
"169 -17 OFFCURVE",
"171 -10 CURVE",
"244 190 LINE",
"245 195 OFFCURVE",
"242 200 OFFCURVE",
"237 200 CURVE SMOOTH",
"230 200 OFFCURVE",
"225 197 OFFCURVE",
"223 190 CURVE",
"150 -10 LINE",
"149 -15 OFFCURVE",
"152 -20 OFFCURVE",
"157 -20 CURVE SMOOTH"
);
},
{
closed = 1;
nodes = (
"231 627 OFFCURVE",
"228 630 OFFCURVE",
"221 630 CURVE SMOOTH",
"214 630 OFFCURVE",
"211 627 OFFCURVE",
"211 620 CURVE SMOOTH",
"211 530 LINE SMOOTH",
"211 523 OFFCURVE",
"214 520 OFFCURVE",
"221 520 CURVE SMOOTH",
"228 520 OFFCURVE",
"231 523 OFFCURVE",
"231 530 CURVE SMOOTH",
"231 620 LINE SMOOTH"
);
}
);
vertWidth = 1000;
width = 394;
}
);
note = uniFF1B;
unicode = FF1B;
},
{
glyphname = anglebracketleft;
lastChange = "2017-12-21 08:51:19 +0000";
layers = (
{
layerId = "99EDF2D5-CD7B-4E11-8CDD-EE9B5E3139F2";
paths = (
{
closed = 1;
nodes = (
"486 794 OFFCURVE",
"483 800 OFFCURVE",
"478 800 CURVE SMOOTH",
"471 800 OFFCURVE",
"465 797 OFFCURVE",
"460 790 CURVE",
"216 408 LINE SMOOTH",
"195 376 OFFCURVE",
"195 344 OFFCURVE",
"216 312 CURVE SMOOTH",
"460 -70 LINE",
"465 -77 OFFCURVE",
"471 -80 OFFCURVE",
"478 -80 CURVE SMOOTH",
"483 -80 OFFCURVE",
"486 -74 OFFCURVE",
"483 -70 CURVE",
"214 353 LINE SMOOTH",
"211 358 OFFCURVE",
"211 362 OFFCURVE",
"214 367 CURVE SMOOTH",
"483 790 LINE"
);
}
);
vertWidth = 1000;
width = 514;
}
);
note = uni3008;
unicode = 3008;
},
{
glyphname = anglebracketright;
lastChange = "2017-12-21 08:51:35 +0000";
layers = (
{
layerId = "99EDF2D5-CD7B-4E11-8CDD-EE9B5E3139F2";
paths = (
{
closed = 1;
nodes = (
"319 344 OFFCURVE",
"319 376 OFFCURVE",
"298 408 CURVE SMOOTH",
"54 790 LINE",
"49 797 OFFCURVE",
"43 800 OFFCURVE",
"36 800 CURVE SMOOTH",
"31 800 OFFCURVE",
"28 794 OFFCURVE",
"31 790 CURVE",
"300 367 LINE SMOOTH",
"303 362 OFFCURVE",
"303 358 OFFCURVE",
"300 353 CURVE SMOOTH",
"31 -70 LINE",
"28 -74 OFFCURVE",
"31 -80 OFFCURVE",
"36 -80 CURVE SMOOTH",
"43 -80 OFFCURVE",
"49 -77 OFFCURVE",
"54 -70 CURVE",
"298 312 LINE SMOOTH"
);
}
);
vertWidth = 1000;
width = 514;
}
);
note = uni3009;
unicode = 3009;
},
{
glyphname = blacklenticularbracketleft;
lastChange = "2017-12-21 08:51:19 +0000";
layers = (
{
layerId = "99EDF2D5-CD7B-4E11-8CDD-EE9B5E3139F2";
paths = (
{
closed = 1;
nodes = (
"433 -80 OFFCURVE",
"443 -56 OFFCURVE",
"430 -41 CURVE SMOOTH",
"327 70 OFFCURVE",
"270 215 OFFCURVE",
"270 360 CURVE SMOOTH",
"270 505 OFFCURVE",
"327 650 OFFCURVE",
"430 761 CURVE SMOOTH",
"443 776 OFFCURVE",
"433 800 OFFCURVE",
"413 800 CURVE SMOOTH",
"257 800 LINE SMOOTH",
"226 800 OFFCURVE",
"200 774 OFFCURVE",
"200 743 CURVE SMOOTH",
"200 -23 LINE SMOOTH",
"200 -54 OFFCURVE",
"226 -80 OFFCURVE",
"257 -80 CURVE SMOOTH",
"413 -80 LINE SMOOTH"
);
}
);
vertWidth = 1000;
width = 466;
}
);
note = uni3010;
unicode = 3010;
},
{
glyphname = blacklenticularbracketright;
lastChange = "2017-12-21 08:51:35 +0000";
layers = (
{
layerId = "99EDF2D5-CD7B-4E11-8CDD-EE9B5E3139F2";
paths = (
{
closed = 1;
nodes = (
"240 -80 OFFCURVE",
"266 -54 OFFCURVE",
"266 -23 CURVE SMOOTH",
"266 743 LINE SMOOTH",
"266 774 OFFCURVE",
"240 800 OFFCURVE",
"209 800 CURVE SMOOTH",
"53 800 LINE SMOOTH",
"33 800 OFFCURVE",
"23 776 OFFCURVE",
"36 761 CURVE SMOOTH",
"139 650 OFFCURVE",
"196 505 OFFCURVE",
"196 360 CURVE SMOOTH",
"196 215 OFFCURVE",
"139 70 OFFCURVE",
"36 -41 CURVE SMOOTH",
"23 -56 OFFCURVE",
"33 -80 OFFCURVE",
"53 -80 CURVE SMOOTH",
"209 -80 LINE SMOOTH"
);
}
);
vertWidth = 1000;
width = 466;
}
);
note = uni3011;
unicode = 3011;
},
{
glyphname = braceleft.full;
lastChange = "2017-12-21 08:51:19 +0000";
layers = (
{
layerId = "99EDF2D5-CD7B-4E11-8CDD-EE9B5E3139F2";
paths = (
{
closed = 1;
nodes = (
"361 385 OFFCURVE",
"380 431 OFFCURVE",
"380 500 CURVE SMOOTH",
"380 660 LINE SMOOTH",
"380 753 OFFCURVE",
"413 780 OFFCURVE",
"480 780 CURVE SMOOTH",
"620 780 LINE SMOOTH",
"627 780 OFFCURVE",
"630 783 OFFCURVE",
"630 790 CURVE SMOOTH",
"630 797 OFFCURVE",
"627 800 OFFCURVE",
"620 800 CURVE SMOOTH",
"480 800 LINE SMOOTH",
"396 800 OFFCURVE",
"360 759 OFFCURVE",
"360 660 CURVE SMOOTH",
"360 500 LINE SMOOTH",
"360 421 OFFCURVE",
"329 370 OFFCURVE",
"280 370 CURVE SMOOTH",
"210 370 LINE SMOOTH",
"203 370 OFFCURVE",
"200 367 OFFCURVE",
"200 360 CURVE SMOOTH",
"200 353 OFFCURVE",
"203 350 OFFCURVE",
"210 350 CURVE SMOOTH",
"280 350 LINE SMOOTH",
"329 350 OFFCURVE",
"360 299 OFFCURVE",
"360 220 CURVE SMOOTH",
"360 60 LINE SMOOTH",
"360 -39 OFFCURVE",
"396 -80 OFFCURVE",
"480 -80 CURVE SMOOTH",
"620 -80 LINE SMOOTH",
"627 -80 OFFCURVE",
"630 -77 OFFCURVE",
"630 -70 CURVE SMOOTH",
"630 -63 OFFCURVE",
"627 -60 OFFCURVE",
"620 -60 CURVE SMOOTH",
"480 -60 LINE SMOOTH",
"413 -60 OFFCURVE",
"380 -33 OFFCURVE",
"380 60 CURVE SMOOTH",
"380 220 LINE SMOOTH",
"380 289 OFFCURVE",
"361 335 OFFCURVE",
"322 358 CURVE",
"321 358 OFFCURVE",
"320 359 OFFCURVE",
"320 360 CURVE SMOOTH",
"320 361 OFFCURVE",
"321 362 OFFCURVE",
"322 362 CURVE"
);
}
);
vertWidth = 1000;
width = 660;
}
);
note = uniFF5B;
unicode = FF5B;
},
{
glyphname = braceright.full;
lastChange = "2017-12-21 08:51:35 +0000";
layers = (
{
layerId = "99EDF2D5-CD7B-4E11-8CDD-EE9B5E3139F2";
paths = (
{
closed = 1;
nodes = (
"299 335 OFFCURVE",
"280 289 OFFCURVE",
"280 220 CURVE SMOOTH",
"280 60 LINE SMOOTH",
"280 -33 OFFCURVE",
"247 -60 OFFCURVE",
"180 -60 CURVE SMOOTH",
"40 -60 LINE SMOOTH",
"33 -60 OFFCURVE",
"30 -63 OFFCURVE",
"30 -70 CURVE SMOOTH",
"30 -77 OFFCURVE",
"33 -80 OFFCURVE",
"40 -80 CURVE SMOOTH",
"180 -80 LINE SMOOTH",
"264 -80 OFFCURVE",
"300 -39 OFFCURVE",
"300 60 CURVE SMOOTH",
"300 220 LINE SMOOTH",
"300 299 OFFCURVE",
"331 350 OFFCURVE",
"380 350 CURVE SMOOTH",
"450 350 LINE SMOOTH",
"457 350 OFFCURVE",
"460 353 OFFCURVE",
"460 360 CURVE SMOOTH",
"460 367 OFFCURVE",
"457 370 OFFCURVE",
"450 370 CURVE SMOOTH",
"380 370 LINE SMOOTH",
"331 370 OFFCURVE",
"300 421 OFFCURVE",
"300 500 CURVE SMOOTH",
"300 660 LINE SMOOTH",
"300 759 OFFCURVE",
"264 800 OFFCURVE",
"180 800 CURVE SMOOTH",
"40 800 LINE SMOOTH",
"33 800 OFFCURVE",
"30 797 OFFCURVE",
"30 790 CURVE SMOOTH",
"30 783 OFFCURVE",
"33 780 OFFCURVE",
"40 780 CURVE SMOOTH",
"180 780 LINE SMOOTH",
"247 780 OFFCURVE",
"280 753 OFFCURVE",
"280 660 CURVE SMOOTH",
"280 500 LINE SMOOTH",
"280 431 OFFCURVE",
"299 385 OFFCURVE",
"338 362 CURVE",
"339 362 OFFCURVE",
"340 361 OFFCURVE",
"340 360 CURVE SMOOTH",
"340 359 OFFCURVE",
"339 358 OFFCURVE",
"338 358 CURVE"
);
}
);
vertWidth = 1000;
width = 660;
}
);
note = uniFF5D;
unicode = FF5D;
},
{
glyphname = cornerbracketleft;
lastChange = "2017-12-21 08:51:19 +0000";
layers = (
{
layerId = "99EDF2D5-CD7B-4E11-8CDD-EE9B5E3139F2";
paths = (
{
closed = 1;
nodes = (
"220 797 OFFCURVE",
"223 800 OFFCURVE",
"229 800 CURVE SMOOTH",
"540 800 LINE SMOOTH",
"547 800 OFFCURVE",
"550 803 OFFCURVE",
"550 810 CURVE SMOOTH",
"550 817 OFFCURVE",
"547 820 OFFCURVE",
"540 820 CURVE SMOOTH",
"257 820 LINE SMOOTH",
"226 820 OFFCURVE",
"200 794 OFFCURVE",
"200 763 CURVE SMOOTH",
"200 80 LINE SMOOTH",
"200 73 OFFCURVE",
"203 70 OFFCURVE",
"210 70 CURVE SMOOTH",
"217 70 OFFCURVE",
"220 73 OFFCURVE",
"220 80 CURVE SMOOTH",
"220 791 LINE SMOOTH"
);
}
);
vertWidth = 1000;
width = 580;
}
);
note = uni300C;
unicode = 300C;
},
{
glyphname = cornerbracketright;
lastChange = "2017-12-21 08:51:35 +0000";
layers = (
{
layerId = "99EDF2D5-CD7B-4E11-8CDD-EE9B5E3139F2";
paths = (
{
closed = 1;
nodes = (
"354 -100 OFFCURVE",
"380 -74 OFFCURVE",
"380 -43 CURVE SMOOTH",
"380 640 LINE SMOOTH",
"380 647 OFFCURVE",
"377 650 OFFCURVE",
"370 650 CURVE SMOOTH",
"363 650 OFFCURVE",
"360 647 OFFCURVE",
"360 640 CURVE SMOOTH",
"360 -71 LINE SMOOTH",
"360 -77 OFFCURVE",
"357 -80 OFFCURVE",
"351 -80 CURVE SMOOTH",
"40 -80 LINE SMOOTH",
"33 -80 OFFCURVE",
"30 -83 OFFCURVE",
"30 -90 CURVE SMOOTH",
"30 -97 OFFCURVE",
"33 -100 OFFCURVE",
"40 -100 CURVE SMOOTH",
"323 -100 LINE SMOOTH"
);
}
);
vertWidth = 1000;
width = 580;
}
);
note = uni300D;
unicode = 300D;
},
{
glyphname = dblanglebracketleft;
lastChange = "2017-12-21 08:51:19 +0000";
layers = (
{
layerId = "99EDF2D5-CD7B-4E11-8CDD-EE9B5E3139F2";
paths = (
{
closed = 1;
nodes = (
"606 794 OFFCURVE",
"603 800 OFFCURVE",
"598 800 CURVE SMOOTH",
"591 800 OFFCURVE",
"585 797 OFFCURVE",
"580 790 CURVE",
"336 408 LINE SMOOTH",
"315 376 OFFCURVE",
"315 344 OFFCURVE",
"336 312 CURVE SMOOTH",
"580 -70 LINE",
"585 -77 OFFCURVE",
"591 -80 OFFCURVE",
"598 -80 CURVE SMOOTH",
"603 -80 OFFCURVE",
"606 -74 OFFCURVE",
"603 -70 CURVE",
"334 353 LINE SMOOTH",
"331 358 OFFCURVE",
"331 362 OFFCURVE",
"334 367 CURVE SMOOTH",
"603 790 LINE"
);
},
{
closed = 1;
nodes = (
"465 -77 OFFCURVE",
"471 -80 OFFCURVE",
"478 -80 CURVE SMOOTH",
"483 -80 OFFCURVE",
"486 -74 OFFCURVE",
"483 -70 CURVE",
"214 353 LINE SMOOTH",
"211 358 OFFCURVE",
"211 362 OFFCURVE",
"214 367 CURVE SMOOTH",
"483 790 LINE",
"486 794 OFFCURVE",
"483 800 OFFCURVE",
"478 800 CURVE SMOOTH",
"471 800 OFFCURVE",
"465 797 OFFCURVE",
"460 790 CURVE",
"216 408 LINE SMOOTH",
"195 376 OFFCURVE",
"195 344 OFFCURVE",
"216 312 CURVE SMOOTH",
"460 -70 LINE"
);
}
);
vertWidth = 1000;
width = 634;
}
);
note = uni300A;
unicode = 300A;
},
{
glyphname = dblanglebracketright;
lastChange = "2017-12-21 08:51:35 +0000";
layers = (
{
layerId = "99EDF2D5-CD7B-4E11-8CDD-EE9B5E3139F2";
paths = (
{
closed = 1;
nodes = (
"319 344 OFFCURVE",
"319 376 OFFCURVE",
"298 408 CURVE SMOOTH",
"54 790 LINE",
"49 797 OFFCURVE",
"43 800 OFFCURVE",
"36 800 CURVE SMOOTH",
"31 800 OFFCURVE",
"28 794 OFFCURVE",
"31 790 CURVE",
"300 367 LINE SMOOTH",
"303 362 OFFCURVE",
"303 358 OFFCURVE",
"300 353 CURVE SMOOTH",
"31 -70 LINE",
"28 -74 OFFCURVE",
"31 -80 OFFCURVE",
"36 -80 CURVE SMOOTH",
"43 -80 OFFCURVE",
"49 -77 OFFCURVE",
"54 -70 CURVE",
"298 312 LINE SMOOTH"
);
},
{
closed = 1;
nodes = (
"423 362 OFFCURVE",
"423 358 OFFCURVE",
"420 353 CURVE SMOOTH",
"151 -70 LINE",
"148 -74 OFFCURVE",
"151 -80 OFFCURVE",
"156 -80 CURVE SMOOTH",
"163 -80 OFFCURVE",
"169 -77 OFFCURVE",
"174 -70 CURVE",
"418 312 LINE SMOOTH",
"439 344 OFFCURVE",
"439 376 OFFCURVE",
"418 408 CURVE SMOOTH",
"174 790 LINE",
"169 797 OFFCURVE",
"163 800 OFFCURVE",
"156 800 CURVE SMOOTH",
"151 800 OFFCURVE",
"148 794 OFFCURVE",
"151 790 CURVE",
"420 367 LINE SMOOTH"
);
}
);
vertWidth = 1000;
width = 634;
}
);
note = uni300B;
unicode = 300B;
},
{
glyphname = tortoiseshellbracketleft;
lastChange = "2017-12-21 08:51:19 +0000";
layers = (
{
layerId = "99EDF2D5-CD7B-4E11-8CDD-EE9B5E3139F2";
paths = (
{
closed = 1;
nodes = (
"505 -82 OFFCURVE",
"510 -79 OFFCURVE",
"510 -74 CURVE SMOOTH",
"510 -67 OFFCURVE",
"507 -62 OFFCURVE",
"500 -60 CURVE",
"228 46 LINE SMOOTH",
"223 48 OFFCURVE",
"220 52 OFFCURVE",
"220 57 CURVE SMOOTH",
"220 663 LINE SMOOTH",
"220 668 OFFCURVE",
"223 672 OFFCURVE",
"228 674 CURVE SMOOTH",
"500 780 LINE",
"507 782 OFFCURVE",
"510 787 OFFCURVE",
"510 794 CURVE SMOOTH",
"510 799 OFFCURVE",
"505 802 OFFCURVE",
"500 801 CURVE",
"253 705 LINE SMOOTH",
"221 693 OFFCURVE",
"200 663 OFFCURVE",
"200 628 CURVE SMOOTH",
"200 92 LINE SMOOTH",
"200 57 OFFCURVE",
"221 27 OFFCURVE",
"253 15 CURVE SMOOTH",
"500 -81 LINE"
);
}
);
vertWidth = 1000;
width = 540;
}
);
note = uni3014;
unicode = 3014;
},
{
glyphname = tortoiseshellbracketright;
lastChange = "2017-12-21 08:51:35 +0000";
layers = (
{
layerId = "99EDF2D5-CD7B-4E11-8CDD-EE9B5E3139F2";
paths = (
{
closed = 1;
nodes = (
"33 -62 OFFCURVE",
"30 -67 OFFCURVE",
"30 -74 CURVE SMOOTH",
"30 -79 OFFCURVE",
"35 -82 OFFCURVE",
"40 -81 CURVE",
"287 15 LINE SMOOTH",
"319 27 OFFCURVE",
"340 57 OFFCURVE",
"340 92 CURVE SMOOTH",
"340 628 LINE SMOOTH",
"340 663 OFFCURVE",
"319 693 OFFCURVE",
"287 705 CURVE SMOOTH",
"40 801 LINE",
"35 802 OFFCURVE",
"30 799 OFFCURVE",
"30 794 CURVE SMOOTH",
"30 787 OFFCURVE",
"33 782 OFFCURVE",
"40 780 CURVE",
"312 674 LINE SMOOTH",
"317 672 OFFCURVE",
"320 668 OFFCURVE",
"320 663 CURVE SMOOTH",
"320 57 LINE SMOOTH",
"320 52 OFFCURVE",
"317 48 OFFCURVE",
"312 46 CURVE SMOOTH",
"40 -60 LINE"
);
}
);
vertWidth = 1000;
width = 540;
}
);
note = uni3015;
unicode = 3015;
},
{
glyphname = whitecornerbracketleft;
lastChange = "2017-12-21 08:51:19 +0000";
layers = (
{
layerId = "99EDF2D5-CD7B-4E11-8CDD-EE9B5E3139F2";
paths = (
{
closed = 1;
nodes = (
"220 797 OFFCURVE",
"223 800 OFFCURVE",
"229 800 CURVE SMOOTH",
"552 800 LINE SMOOTH",
"557 800 OFFCURVE",
"560 797 OFFCURVE",
"560 791 CURVE SMOOTH",
"560 738 LINE SMOOTH",
"560 733 OFFCURVE",
"557 730 OFFCURVE",
"552 730 CURVE SMOOTH",
"347 730 LINE SMOOTH",
"316 730 OFFCURVE",
"290 704 OFFCURVE",
"290 673 CURVE SMOOTH",
"290 68 LINE SMOOTH",
"290 63 OFFCURVE",
"287 60 OFFCURVE",
"282 60 CURVE SMOOTH",
"229 60 LINE SMOOTH",
"223 60 OFFCURVE",
"220 63 OFFCURVE",
"220 68 CURVE SMOOTH",
"220 791 LINE SMOOTH"
);
},
{
closed = 1;
nodes = (
"305 67 OFFCURVE",
"310 80 OFFCURVE",
"310 95 CURVE SMOOTH",
"310 701 LINE SMOOTH",
"310 707 OFFCURVE",
"313 710 OFFCURVE",
"319 710 CURVE SMOOTH",
"525 710 LINE SMOOTH",
"556 710 OFFCURVE",
"580 734 OFFCURVE",
"580 765 CURVE SMOOTH",
"580 796 OFFCURVE",
"556 820 OFFCURVE",
"525 820 CURVE SMOOTH",
"257 820 LINE SMOOTH",
"226 820 OFFCURVE",
"200 794 OFFCURVE",
"200 763 CURVE SMOOTH",
"200 95 LINE SMOOTH",
"200 64 OFFCURVE",
"224 40 OFFCURVE",
"255 40 CURVE SMOOTH",
"270 40 OFFCURVE",
"283 45 OFFCURVE",
"294 56 CURVE SMOOTH"
);
}
);
vertWidth = 1000;
width = 610;
}
);
note = uni300E;
unicode = 300E;
},
{
glyphname = whitecornerbracketright;
lastChange = "2017-12-21 08:51:35 +0000";
layers = (
{
layerId = "99EDF2D5-CD7B-4E11-8CDD-EE9B5E3139F2";
paths = (
{
closed = 1;
nodes = (
"50 -13 OFFCURVE",
"53 -10 OFFCURVE",
"59 -10 CURVE SMOOTH",
"263 -10 LINE SMOOTH",
"294 -10 OFFCURVE",
"320 16 OFFCURVE",
"320 47 CURVE SMOOTH",
"320 651 LINE SMOOTH",
"320 657 OFFCURVE",
"323 660 OFFCURVE",
"329 660 CURVE SMOOTH",
"382 660 LINE SMOOTH",
"387 660 OFFCURVE",
"390 657 OFFCURVE",
"390 651 CURVE SMOOTH",
"390 -72 LINE SMOOTH",
"390 -77 OFFCURVE",
"387 -80 OFFCURVE",
"382 -80 CURVE SMOOTH",
"59 -80 LINE SMOOTH",
"53 -80 OFFCURVE",
"50 -77 OFFCURVE",
"50 -72 CURVE SMOOTH",
"50 -19 LINE SMOOTH"
);
},
{
closed = 1;
nodes = (
"384 -100 OFFCURVE",
"410 -74 OFFCURVE",
"410 -43 CURVE SMOOTH",
"410 625 LINE SMOOTH",
"410 656 OFFCURVE",
"386 680 OFFCURVE",
"355 680 CURVE SMOOTH",
"324 680 OFFCURVE",
"300 656 OFFCURVE",
"300 625 CURVE SMOOTH",
"300 19 LINE SMOOTH",
"300 13 OFFCURVE",
"297 10 OFFCURVE",
"291 10 CURVE SMOOTH",
"85 10 LINE SMOOTH",
"54 10 OFFCURVE",
"30 -14 OFFCURVE",
"30 -45 CURVE SMOOTH",
"30 -76 OFFCURVE",
"54 -100 OFFCURVE",
"85 -100 CURVE SMOOTH",
"353 -100 LINE SMOOTH"
);
}
);
vertWidth = 1000;
width = 610;
}
);
note = uni300F;
unicode = 300F;
},
{
glyphname = whitelenticularbracketleft;
lastChange = "2017-12-21 08:51:19 +0000";
layers = (
{
layerId = "99EDF2D5-CD7B-4E11-8CDD-EE9B5E3139F2";
paths = (
{
closed = 1;
nodes = (
"220 777 OFFCURVE",
"223 780 OFFCURVE",
"229 780 CURVE SMOOTH",
"436 780 LINE SMOOTH",
"441 780 OFFCURVE",
"442 778 OFFCURVE",
"439 773 CURVE",
"344 658 OFFCURVE",
"290 511 OFFCURVE",
"290 360 CURVE SMOOTH",
"290 209 OFFCURVE",
"344 62 OFFCURVE",
"439 -53 CURVE",
"440 -56 OFFCURVE",
"439 -60 OFFCURVE",
"436 -60 CURVE SMOOTH",
"229 -60 LINE SMOOTH",
"223 -60 OFFCURVE",
"220 -57 OFFCURVE",
"220 -51 CURVE SMOOTH",
"220 771 LINE SMOOTH"
);
},
{
closed = 1;
nodes = (
"454 -80 OFFCURVE",
"467 -55 OFFCURVE",
"452 -38 CURVE",
"361 73 OFFCURVE",
"310 216 OFFCURVE",
"310 360 CURVE SMOOTH",
"310 504 OFFCURVE",
"361 647 OFFCURVE",
"452 758 CURVE",
"467 775 OFFCURVE",
"454 800 OFFCURVE",
"433 800 CURVE SMOOTH",
"257 800 LINE SMOOTH",
"226 800 OFFCURVE",
"200 774 OFFCURVE",
"200 743 CURVE SMOOTH",
"200 -23 LINE SMOOTH",
"200 -54 OFFCURVE",
"226 -80 OFFCURVE",
"257 -80 CURVE SMOOTH",
"433 -80 LINE SMOOTH"
);
}
);
vertWidth = 1000;
width = 488;
}
);
note = uni3016;
unicode = 3016;
},
{
glyphname = whitelenticularbracketright;
lastChange = "2017-12-21 08:51:35 +0000";
layers = (
{
layerId = "99EDF2D5-CD7B-4E11-8CDD-EE9B5E3139F2";
paths = (
{
closed = 1;
nodes = (
"144 62 OFFCURVE",
"198 209 OFFCURVE",
"198 360 CURVE SMOOTH",
"198 511 OFFCURVE",
"144 658 OFFCURVE",
"49 773 CURVE",
"48 776 OFFCURVE",
"49 780 OFFCURVE",
"52 780 CURVE SMOOTH",
"259 780 LINE SMOOTH",
"265 780 OFFCURVE",
"268 777 OFFCURVE",
"268 771 CURVE SMOOTH",
"268 -52 LINE SMOOTH",
"268 -57 OFFCURVE",
"265 -60 OFFCURVE",
"259 -60 CURVE SMOOTH",
"52 -60 LINE SMOOTH",
"47 -60 OFFCURVE",
"46 -58 OFFCURVE",
"49 -53 CURVE"
);
},
{
closed = 1;
nodes = (
"262 -80 OFFCURVE",
"288 -54 OFFCURVE",
"288 -23 CURVE SMOOTH",
"288 743 LINE SMOOTH",
"288 774 OFFCURVE",
"262 800 OFFCURVE",
"231 800 CURVE SMOOTH",
"55 800 LINE SMOOTH",
"34 800 OFFCURVE",
"21 775 OFFCURVE",
"36 758 CURVE",
"127 647 OFFCURVE",
"178 504 OFFCURVE",
"178 360 CURVE SMOOTH",
"178 216 OFFCURVE",
"127 73 OFFCURVE",
"36 -38 CURVE",
"21 -55 OFFCURVE",
"34 -80 OFFCURVE",
"55 -80 CURVE SMOOTH",
"231 -80 LINE SMOOTH"
);
}
);
vertWidth = 1000;
width = 488;
}
);
note = uni3017;
unicode = 3017;
},
{
glyphname = bracketleft.full;
lastChange = "2017-12-21 08:51:19 +0000";
layers = (
{
layerId = "99EDF2D5-CD7B-4E11-8CDD-EE9B5E3139F2";
paths = (
{
closed = 1;
nodes = (
"507 -80 OFFCURVE",
"510 -77 OFFCURVE",
"510 -70 CURVE SMOOTH",
"510 -63 OFFCURVE",
"507 -60 OFFCURVE",
"500 -60 CURVE SMOOTH",
"229 -60 LINE SMOOTH",
"223 -60 OFFCURVE",
"220 -57 OFFCURVE",
"220 -51 CURVE SMOOTH",
"220 772 LINE SMOOTH",
"220 777 OFFCURVE",
"223 780 OFFCURVE",
"229 780 CURVE SMOOTH",
"500 780 LINE SMOOTH",
"507 780 OFFCURVE",
"510 783 OFFCURVE",
"510 790 CURVE SMOOTH",
"510 797 OFFCURVE",
"507 800 OFFCURVE",
"500 800 CURVE SMOOTH",
"257 800 LINE SMOOTH",
"226 800 OFFCURVE",
"200 774 OFFCURVE",
"200 743 CURVE SMOOTH",
"200 -23 LINE SMOOTH",
"200 -54 OFFCURVE",
"226 -80 OFFCURVE",
"257 -80 CURVE SMOOTH",
"500 -80 LINE SMOOTH"
);
}
);
vertWidth = 1000;
width = 540;
}
);
note = uniFF3B;
unicode = FF3B;
},
{
glyphname = bracketright.full;
lastChange = "2017-12-21 08:51:35 +0000";
layers = (
{
layerId = "99EDF2D5-CD7B-4E11-8CDD-EE9B5E3139F2";
paths = (
{
closed = 1;
nodes = (
"33 -60 OFFCURVE",
"30 -63 OFFCURVE",
"30 -70 CURVE SMOOTH",
"30 -77 OFFCURVE",
"33 -80 OFFCURVE",
"40 -80 CURVE SMOOTH",
"283 -80 LINE SMOOTH",
"314 -80 OFFCURVE",
"340 -54 OFFCURVE",
"340 -23 CURVE SMOOTH",
"340 743 LINE SMOOTH",
"340 774 OFFCURVE",
"314 800 OFFCURVE",
"283 800 CURVE SMOOTH",
"40 800 LINE SMOOTH",
"33 800 OFFCURVE",
"30 797 OFFCURVE",
"30 790 CURVE SMOOTH",
"30 783 OFFCURVE",
"33 780 OFFCURVE",
"40 780 CURVE SMOOTH",
"311 780 LINE SMOOTH",
"317 780 OFFCURVE",
"320 777 OFFCURVE",
"320 771 CURVE SMOOTH",
"320 -52 LINE SMOOTH",
"320 -57 OFFCURVE",
"317 -60 OFFCURVE",
"311 -60 CURVE SMOOTH",
"40 -60 LINE SMOOTH"
);
}
);
vertWidth = 1000;
width = 540;
}
);
note = uniFF3D;
unicode = FF3D;
},
{
glyphname = parenleft.full;
lastChange = "2017-12-21 08:51:19 +0000";
layers = (
{
layerId = "99EDF2D5-CD7B-4E11-8CDD-EE9B5E3139F2";
paths = (
{
closed = 1;
nodes = (
"405 -77 OFFCURVE",
"414 -80 OFFCURVE",
"424 -80 CURVE SMOOTH",
"428 -80 OFFCURVE",
"431 -74 OFFCURVE",
"428 -71 CURVE",
"289 42 OFFCURVE",
"220 186 OFFCURVE",
"220 360 CURVE SMOOTH",
"220 534 OFFCURVE",
"289 678 OFFCURVE",
"428 791 CURVE",
"432 794 OFFCURVE",
"429 800 OFFCURVE",
"424 800 CURVE SMOOTH",
"414 800 OFFCURVE",
"405 797 OFFCURVE",
"397 790 CURVE SMOOTH",
"266 675 OFFCURVE",
"200 531 OFFCURVE",
"200 360 CURVE SMOOTH",
"200 189 OFFCURVE",
"266 45 OFFCURVE",
"397 -70 CURVE SMOOTH"
);
}
);
vertWidth = 1000;
width = 460;
}
);
note = uniFF08;
unicode = FF08;
},
{
glyphname = parenright.full;
lastChange = "2017-12-21 08:51:35 +0000";
layers = (
{
layerId = "99EDF2D5-CD7B-4E11-8CDD-EE9B5E3139F2";
paths = (
{
closed = 1;
nodes = (
"28 -74 OFFCURVE",
"31 -80 OFFCURVE",
"36 -80 CURVE SMOOTH",
"46 -80 OFFCURVE",
"55 -77 OFFCURVE",
"63 -70 CURVE SMOOTH",
"194 45 OFFCURVE",
"260 189 OFFCURVE",
"260 360 CURVE SMOOTH",
"260 531 OFFCURVE",
"194 675 OFFCURVE",
"63 790 CURVE SMOOTH",
"55 797 OFFCURVE",
"46 800 OFFCURVE",
"36 800 CURVE SMOOTH",
"32 800 OFFCURVE",
"29 794 OFFCURVE",
"32 791 CURVE",
"171 678 OFFCURVE",
"240 534 OFFCURVE",
"240 360 CURVE SMOOTH",
"240 186 OFFCURVE",
"171 42 OFFCURVE",
"32 -71 CURVE"
);
}
);
vertWidth = 1000;
width = 460;
}
);
note = uniFF09;
unicode = FF09;
},
{
glyphname = "dot-kata";
lastChange = "2017-12-21 08:51:00 +0000";
layers = (
{
layerId = "99EDF2D5-CD7B-4E11-8CDD-EE9B5E3139F2";
paths = (
{
closed = 1;
nodes = (
"170 417 OFFCURVE",
"167 420 OFFCURVE",
"160 420 CURVE SMOOTH",
"153 420 OFFCURVE",
"150 417 OFFCURVE",
"150 410 CURVE SMOOTH",
"150 310 LINE SMOOTH",
"150 303 OFFCURVE",
"153 300 OFFCURVE",
"160 300 CURVE SMOOTH",
"167 300 OFFCURVE",
"170 303 OFFCURVE",
"170 310 CURVE SMOOTH",
"170 410 LINE SMOOTH"
);
}
);
vertWidth = 1000;
width = 320;
}
);
note = uni30FB;
unicode = 30FB;
},
{
glyphname = "comma-han";
lastChange = "2017-12-21 08:51:45 +0000";
layers = (
{
layerId = "99EDF2D5-CD7B-4E11-8CDD-EE9B5E3139F2";
paths = (
{
closed = 1;
nodes = (
"258 -35 OFFCURVE",
"271 -20 OFFCURVE",
"262 -11 CURVE",
"201 58 OFFCURVE",
"135 124 OFFCURVE",
"66 185 CURVE",
"58 194 OFFCURVE",
"44 181 OFFCURVE",
"53 170 CURVE",
"122 109 OFFCURVE",
"186 45 OFFCURVE",
"247 -24 CURVE"
);
}
);
vertWidth = 1000;
width = 465;
}
);
note = uni3001;
unicode = 3001;
},
{
glyphname = "period-han";
lastChange = "2017-12-21 08:51:52 +0000";
layers = (
{
layerId = "99EDF2D5-CD7B-4E11-8CDD-EE9B5E3139F2";
paths = (
{
closed = 1;
nodes = (
"298 142 OFFCURVE",
"310 113 OFFCURVE",
"310 80 CURVE SMOOTH",
"310 13 OFFCURVE",
"257 -40 OFFCURVE",
"190 -40 CURVE SMOOTH",
"123 -40 OFFCURVE",
"70 13 OFFCURVE",
"70 80 CURVE SMOOTH",
"70 147 OFFCURVE",
"123 200 OFFCURVE",
"190 200 CURVE SMOOTH",
"223 200 OFFCURVE",
"252 188 OFFCURVE",
"275 165 CURVE SMOOTH"
);
},
{
closed = 1;
nodes = (
"316 8 OFFCURVE",
"330 41 OFFCURVE",
"330 80 CURVE SMOOTH",
"330 157 OFFCURVE",
"267 220 OFFCURVE",
"190 220 CURVE SMOOTH",
"113 220 OFFCURVE",
"50 157 OFFCURVE",
"50 80 CURVE SMOOTH",
"50 3 OFFCURVE",
"113 -60 OFFCURVE",
"190 -60 CURVE SMOOTH",
"229 -60 OFFCURVE",
"262 -46 OFFCURVE",
"289 -19 CURVE SMOOTH"
);
}
